<svg width="12" height="20" viewBox="0 0 12 22" fill="none" xmlns="http://www.w3.org/2000/svg">
<path d="M1.07 3.041L1.07733 3.05077L1.08557 3.05978L8.31247 10.9565L1.0841 18.9958L1.05763 19.0253L1.04155 19.0615C0.935584 19.2999 0.876 19.5329 0.876 19.757V19.7571V19.7573V19.7574V19.7576V19.7577V19.7578V19.758V19.7581V19.7583V19.7584V19.7586V19.7587V19.7589V19.759V19.7591V19.7593V19.7594V19.7596V19.7597V19.7599V19.76V19.7602V19.7603V19.7605V19.7606V19.7607V19.7609V19.761V19.7612V19.7613V19.7615V19.7616V19.7618V19.7619V19.7621V19.7622V19.7624V19.7625V19.7627V19.7628V19.763V19.7631V19.7633V19.7635V19.7636V19.7638V19.7639V19.7641V19.7642V19.7644V19.7645V19.7647V19.7648V19.765V19.7652V19.7653V19.7655V19.7656V19.7658V19.7659V19.7661V19.7662V19.7664V19.7666V19.7667V19.7669V19.767V19.7672V19.7674V19.7675V19.7677V19.7678V19.768V19.7682V19.7683V19.7685V19.7686V19.7688V19.769V19.7691V19.7693V19.7695V19.7696V19.7698V19.7699V19.7701V19.7703V19.7704V19.7706V19.7708V19.7709V19.7711V19.7713V19.7714V19.7716V19.7718V19.7719V19.7721V19.7723V19.7724V19.7726V19.7728V19.7729V19.7731V19.7733V19.7734V19.7736V19.7738V19.774V19.7741V19.7743V19.7745V19.7746V19.7748V19.775V19.7752V19.7753V19.7755V19.7757V19.7759V19.776V19.7762V19.7764V19.7765V19.7767V19.7769V19.7771V19.7773V19.7774V19.7776V19.7778V19.778V19.7781V19.7783V19.7785V19.7787V19.7788V19.779V19.7792V19.7794V19.7796V19.7797V19.7799V19.7801V19.7803V19.7805V19.7806V19.7808V19.781V19.7812V19.7814V19.7815V19.7817V19.7819V19.7821V19.7823V19.7825V19.7826V19.7828V19.783V19.7832V19.7834V19.7836V19.7838V19.7839V19.7841V19.7843V19.7845V19.7847V19.7849V19.7851V19.7852V19.7854V19.7856V19.7858V19.786V19.7862V19.7864V19.7866V19.7868V19.787V19.7871V19.7873V19.7875V19.7877V19.7879V19.7881V19.7883V19.7885V19.7887V19.7889V19.7891V19.7893V19.7894V19.7896V19.7898V19.79V19.7902V19.7904V19.7906V19.7908V19.791V19.7912V19.7914V19.7916V19.7918V19.792V19.7922V19.7924V19.7926V19.7928V19.793V19.7932V19.7934V19.7936V19.7938V19.794V19.7942V19.7944V19.7946V19.7948V19.795V19.7952V19.7954V19.7956V19.7958V19.796V19.7962V19.7964V19.7966V19.7968V19.797V19.7972V19.7974V19.7976V19.7978V19.798V19.7982V19.7985V19.7987V19.7989V19.7991V19.7993V19.7995V19.7997V19.7999V19.8001V19.8003V19.8005V19.8007V19.8009V19.8012V19.8014V19.8016V19.8018V19.802V19.8022V19.8024V19.8026V19.8028V19.8031V19.8033V19.8035V19.8037V19.8039V19.8041V19.8043V19.8046V19.8048V19.805V19.8052V19.8054V19.8056V19.8058V19.8061V19.8063V19.8065V19.8067V19.8069V19.8071V19.8074V19.8076V19.8078V19.808V19.8082V19.8085V19.8087V19.8089V19.8091V19.8093V19.8096V19.8098V19.81V19.8102V19.8104V19.8107V19.8109V19.8111V19.8113V19.8115V19.8118V19.812V19.8122V19.8124V19.8127V19.8129V19.8131V19.8133V19.8136V19.8138V19.814V19.8142V19.8145V19.8147V19.8149V19.8152V19.8154V19.8156V19.8158V19.8161V19.8163V19.8165V19.8167V19.817V19.8172V19.8174V19.8177V19.8179V19.8181V19.8184V19.8186V19.8188V19.8191V19.8193V19.8195V19.8198V19.82V19.8202V19.8205V19.8207V19.8209V19.8212V19.8214V19.8216V19.8219V19.8221V19.8223V19.8226V19.8228V19.823V19.8233V19.8235V19.8238V19.824V19.8242V19.8245V19.8247V19.8249V19.8252V19.8254V19.8257V19.8259V19.8261V19.8264V19.8266V19.8269V19.8271V19.8273V19.8276V19.8278V19.8281V19.8283V19.8286V19.8288V19.829V19.8293V19.8295V19.8298V19.83V19.8303V19.8305V19.8308V19.831V19.8312V19.8315V19.8317V19.832V19.8322V19.8325V19.8327V19.833V19.8332V19.8335V19.8337V19.834V19.8342V19.8345V19.8347V19.835V19.8352V19.8355V19.8357V19.836V19.8362V19.8365V19.8367V19.837V19.8372V19.8375V19.8377V19.838V19.8382V19.8385V19.8388V19.839V19.8393V19.8395V19.8398V19.84V19.8403V19.8405V19.8408V19.8411V19.8413V19.8416V19.8418V19.8421V19.8423V19.8426V19.8429V19.8431V19.8434V19.8436V19.8439V19.8442V19.8444V19.8447V19.8449V19.8452V19.8455V19.8457V19.846V19.8462V19.8465V19.8468V19.847V19.8473V19.8476V19.8478V19.8481V19.8484V19.8486V19.8489V19.8491V19.8494V19.8497V19.8499V19.8502V19.8505V19.8507V19.851V19.8513V19.8515V19.8518V19.8521V19.8524V19.8526V19.8529V19.8532V19.8534V19.8537V19.854V19.8542V19.8545V19.8548V19.8551V19.8553V19.8556V19.8559V19.8561V19.8564V19.8567V19.857V19.8572V19.8575V19.8578V19.8581V19.8583V19.8586V19.8589V19.8592V19.8594V19.8597V19.86V19.8603V19.8605V19.8608V19.8611V19.8614V19.8616V19.8619V19.8622V19.8625V19.8628V19.863V19.8633V19.8636V19.8639V19.8642V19.8644V19.8647V19.865V19.9056L0.88883 19.9441C0.891725 19.9527 0.893253 19.9586 0.894 19.9619V19.9722L0.896345 19.9892C0.947716 20.3616 1.06785 20.6765 1.29116 20.8879C1.4906 21.0993 1.72862 21.2359 2.0029 21.2816L2.02331 21.285H2.044H2.116C2.21217 21.285 2.32027 21.2524 2.41978 21.2151C2.5272 21.1748 2.65585 21.1166 2.8038 21.0426L2.84704 21.021L2.8791 20.9848L10.7271 12.1288L10.79 12.0578V11.963V9.947V9.85155L10.7264 9.78039L2.84239 0.960389L2.81713 0.932128L2.78462 0.912625C2.57875 0.789105 2.36638 0.715 2.152 0.715C2.10735 0.715 2.06428 0.722655 2.02553 0.732998H2.02551H2.02533H2.02514H2.02496H2.02477H2.02459H2.0244H2.02422H2.02403H2.02385H2.02366H2.02348H2.02329H2.02311H2.02293H2.02274H2.02256H2.02238H2.02219H2.02201H2.02183H2.02164H2.02146H2.02128H2.0211H2.02091H2.02073H2.02055H2.02037H2.02019H2.02H2.01982H2.01964H2.01946H2.01928H2.0191H2.01892H2.01874H2.01856H2.01838H2.0182H2.01802H2.01784H2.01766H2.01748H2.0173H2.01712H2.01694H2.01676H2.01658H2.0164H2.01622H2.01604H2.01586H2.01569H2.01551H2.01533H2.01515H2.01497H2.0148H2.01462H2.01444H2.01426H2.01409H2.01391H2.01373H2.01356H2.01338H2.0132H2.01303H2.01285H2.01268H2.0125H2.01232H2.01215H2.01197H2.0118H2.01162H2.01145H2.01127H2.0111H2.01092H2.01075H2.01057H2.0104H2.01023H2.01005H2.00988H2.00971H2.00953H2.00936H2.00919H2.00901H2.00884H2.00867H2.00849H2.00832H2.00815H2.00798H2.0078H2.00763H2.00746H2.00729H2.00712H2.00695H2.00677H2.0066H2.00643H2.00626H2.00609H2.00592H2.00575H2.00558H2.00541H2.00524H2.00507H2.0049H2.00473H2.00456H2.00439H2.00422H2.00405H2.00388H2.00371H2.00355H2.00338H2.00321H2.00304H2.00287H2.0027H2.00254H2.00237H2.0022H2.00203H2.00187H2.0017H2.00153H2.00136H2.0012H2.00103H2.00086H2.0007H2.00053H2.00037H2.0002H2.00003H1.99987H1.9997H1.99954H1.99937H1.99921H1.99904H1.99888H1.99871H1.99855H1.99838H1.99822H1.99805H1.99789H1.99773H1.99756H1.9974H1.99724H1.99707H1.99691H1.99675H1.99658H1.99642H1.99626H1.9961H1.99593H1.99577H1.99561H1.99545H1.99528H1.99512H1.99496H1.9948H1.99464H1.99448H1.99432H1.99416H1.994H1.99383H1.99367H1.99351H1.99335H1.99319H1.99303H1.99287H1.99271H1.99255H1.9924H1.99224H1.99208H1.99192H1.99176H1.9916H1.99144H1.99128H1.99113H1.99097H1.99081H1.99065H1.99049H1.99034H1.99018H1.99002H1.98986H1.98971H1.98955H1.98939H1.98924H1.98908H1.98892H1.98877H1.98861H1.98846H1.9883H1.98814H1.98799H1.98783H1.98768H1.98752H1.98737H1.98721H1.98706H1.9869H1.98675H1.9866H1.98644H1.98629H1.98613H1.98598H1.98583H1.98567H1.98552H1.98537H1.98521H1.98506H1.98491H1.98475H1.9846H1.98445H1.9843H1.98415H1.98399H1.98384H1.98369H1.98354H1.98339H1.98324H1.98308H1.98293H1.98278H1.98263H1.98248H1.98233H1.98218H1.98203H1.98188H1.98173H1.98158H1.98143H1.98128H1.98113H1.98098H1.98083H1.98068H1.98054H1.98039H1.98024H1.98009H1.97994H1.97979H1.97965H1.9795H1.97935H1.9792H1.97906H1.97891H1.97876H1.97861H1.97847H1.97832H1.97817H1.97803H1.97788H1.97773H1.97759H1.97744H1.9773H1.97715H1.97701H1.97686H1.97672H1.97657H1.97643H1.97628H1.97614H1.97599H1.97585H1.9757H1.97556H1.97541H1.97527H1.97513H1.97498H1.97484H1.9747H1.97455H1.97441H1.97427H1.97412H1.97398H1.97384H1.9737H1.97356H1.97341H1.97327H1.97313H1.97299H1.97285H1.9727H1.97256H1.97242H1.97228H1.97214H1.972H1.95213L1.9325 0.736138C1.58628 0.791534 1.29854 0.93628 1.106 1.193L1.106 1.19299L1.10496 1.1944C0.884384 1.49282 0.75 1.79658 0.75 2.099C0.75 2.44346 0.858993 2.75966 1.07 3.041Z" fill="white" stroke="white" stroke-width="0.5"/>
</svg>
